<?xml version="1.0" encoding="UTF-8" standalone="no"?>
<!-- Created with Inkscape (http://www.inkscape.org/) -->

<svg
   xmlns:dc="http://purl.org/dc/elements/1.1/"
   xmlns:cc="http://creativecommons.org/ns#"
   xmlns:rdf="http://www.w3.org/1999/02/22-rdf-syntax-ns#"
   xmlns:svg="http://www.w3.org/2000/svg"
   xmlns="http://www.w3.org/2000/svg"
   xmlns:sodipodi="http://sodipodi.sourceforge.net/DTD/sodipodi-0.dtd"
   xmlns:inkscape="http://www.inkscape.org/namespaces/inkscape"
   width="243"
   height="91"
   id="svg2"
   version="1.1"
   inkscape:version="0.48.4 r9939"
   sodipodi:docname="logo_top.svg">
  <defs
     id="defs4" />
  <sodipodi:namedview
     id="base"
     pagecolor="#ffffff"
     bordercolor="#666666"
     borderopacity="1.0"
     inkscape:pageopacity="0.0"
     inkscape:pageshadow="2"
     inkscape:zoom="11.2"
     inkscape:cx="80.557382"
     inkscape:cy="21.963261"
     inkscape:document-units="px"
     inkscape:current-layer="layer1"
     showgrid="false"
     inkscape:window-width="1920"
     inkscape:window-height="1017"
     inkscape:window-x="-4"
     inkscape:window-y="-4"
     inkscape:window-maximized="1"
     fit-margin-top="0"
     fit-margin-left="0"
     fit-margin-right="2"
     fit-margin-bottom="2" />
  <metadata
     id="metadata7">
    <rdf:RDF>
      <cc:Work
         rdf:about="">
        <dc:format>image/svg+xml</dc:format>
        <dc:type
           rdf:resource="http://purl.org/dc/dcmitype/StillImage" />
        <dc:title></dc:title>
      </cc:Work>
    </rdf:RDF>
  </metadata>
  <g
     inkscape:label="Layer 1"
     inkscape:groupmode="layer"
     id="layer1"
     transform="translate(-9.9274621,-16.19346)">
    <g
       id="g2988"
       transform="matrix(0.99999079,0,0,1.0054259,9.927682,16.19346)">
	<radialGradient
   gradientUnits="userSpaceOnUse"
   r="29.937"
   cy="44.281399"
   cx="44.177399"
   id="SVGID_1_">
		<stop
   id="stop2991"
   style="stop-color:#5BC3EB"
   offset="0" />

		<stop
   id="stop2993"
   style="stop-color:#055AA2"
   offset="0.8079" />

		<stop
   id="stop2995"
   style="stop-color:#0C4879"
   offset="1" />

	</radialGradient>

	<circle
   id="circle2997"
   r="29.937"
   cy="44.280998"
   cx="44.176998"
   class="st0"
   sodipodi:cx="44.176998"
   sodipodi:cy="44.280998"
   sodipodi:rx="29.937"
   sodipodi:ry="29.937"
   style="fill:url(#SVGID_1_)"
   d="m 74.113998,44.280998 c 0,16.533749 -13.403251,29.937001 -29.937,29.937001 -16.533749,0 -29.937,-13.403252 -29.937,-29.937001 0,-16.533748 13.403251,-29.937 29.937,-29.937 16.533749,0 29.937,13.403252 29.937,29.937 z" />

	<g
   id="g2999">
		<path
   id="path3001"
   d="m 14.24,44.281 c 0,4.591 1.037,8.935 2.881,12.822 h 54.112 c 1.845,-3.887 2.881,-8.231 2.881,-12.822 0,-4.598 -1.041,-8.953 -2.892,-12.845 H 17.134 C 15.28,35.328 14.24,39.683 14.24,44.281 z"
   class="st1"
   inkscape:connector-curvature="0"
   style="opacity:0.1;fill:#ffffff" />

		<path
   id="path3003"
   d="m 44.19,74.206 c 4.589,0 8.934,-1.037 12.821,-2.881 v -54.11 c -3.887,-1.847 -8.232,-2.882 -12.821,-2.882 -4.598,0 -8.955,1.04 -12.845,2.892 v 54.088 c 3.89,1.852 8.247,2.893 12.845,2.893 z"
   class="st1"
   inkscape:connector-curvature="0"
   style="opacity:0.1;fill:#ffffff" />

		<path
   id="path3005"
   d="m 23.018,65.446 c 3.244,3.245 7.049,5.585 11.103,7.029 L 72.381,34.213 C 70.939,30.159 68.597,26.355 65.353,23.109 62.103,19.858 58.288,17.514 54.226,16.07 L 15.979,54.316 c 1.443,4.064 3.786,7.88 7.039,11.13 z"
   class="st1"
   inkscape:connector-curvature="0"
   style="opacity:0.1;fill:#ffffff" />

		<path
   id="path3007"
   d="m 65.353,65.428 c 3.247,-3.244 5.586,-7.05 7.028,-11.103 L 34.121,16.062 c -4.053,1.444 -7.859,3.784 -11.103,7.03 -3.253,3.251 -5.596,7.066 -7.04,11.128 l 38.247,38.246 c 4.064,-1.443 7.878,-3.786 11.128,-7.038 z"
   class="st1"
   inkscape:connector-curvature="0"
   style="opacity:0.1;fill:#ffffff" />

	</g>

	<g
   id="g3009">
		<path
   id="path3011"
   d="M 80.129,36.39 V 53.215 H 78.158 V 36.39 h 1.971 z"
   class="st2"
   inkscape:connector-curvature="0"
   style="fill:#2a3990" />

		<path
   id="path3013"
   d="M 98.115,53.216 H 95.7 L 87.041,39.806 C 86.821,39.47 86.642,39.118 86.5,38.75 h -0.07 c 0.063,0.36 0.093,1.13 0.093,2.311 v 12.156 h -1.97 V 36.39 h 2.56 l 8.421,13.201 c 0.354,0.547 0.581,0.922 0.681,1.127 h 0.049 C 96.183,50.233 96.145,49.406 96.145,48.24 V 36.39 h 1.97 v 16.826 z"
   class="st2"
   inkscape:connector-curvature="0"
   style="fill:#2a3990" />

		<path
   id="path3015"
   d="m 115.107,52.066 c -1.689,0.954 -3.569,1.432 -5.633,1.432 -2.401,0 -4.343,-0.774 -5.825,-2.323 -1.482,-1.55 -2.223,-3.598 -2.223,-6.15 0,-2.604 0.823,-4.741 2.47,-6.411 1.646,-1.67 3.733,-2.505 6.26,-2.505 1.829,0 3.366,0.297 4.61,0.892 v 2.182 c -1.361,-0.861 -2.973,-1.291 -4.836,-1.291 -1.883,0 -3.429,0.65 -4.633,1.947 -1.206,1.3 -1.806,2.981 -1.806,5.046 0,2.129 0.558,3.8 1.678,5.016 1.117,1.216 2.634,1.823 4.551,1.823 1.314,0 2.451,-0.261 3.415,-0.785 v -4.717 h -3.686 V 44.44 h 5.659 v 7.626 z"
   class="st2"
   inkscape:connector-curvature="0"
   style="fill:#2a3990" />

		<path
   id="path3017"
   d="m 131.322,46.41 c 0,4.725 -2.131,7.087 -6.397,7.087 -4.081,0 -6.122,-2.273 -6.122,-6.817 V 36.39 h 1.97 v 10.161 c 0,3.449 1.454,5.173 4.366,5.173 2.808,0 4.211,-1.665 4.211,-4.998 V 36.39 h 1.973 v 10.02 z"
   class="st2"
   inkscape:connector-curvature="0"
   style="fill:#2a3990" />

		<path
   id="path3019"
   d="M 144.249,53.216 H 135.52 V 36.39 h 1.971 v 15.043 h 6.758 v 1.783 z"
   class="st2"
   inkscape:connector-curvature="0"
   style="fill:#2a3990" />

		<path
   id="path3021"
   d="m 160.546,53.216 h -2.18 L 156.582,48.5 h -7.135 l -1.677,4.716 h -2.192 l 6.452,-16.825 h 2.04 l 6.476,16.825 z m -4.608,-6.489 -2.64,-7.167 c -0.087,-0.236 -0.172,-0.611 -0.259,-1.128 h -0.047 c -0.078,0.479 -0.169,0.854 -0.268,1.128 l -2.616,7.167 h 5.83 z"
   class="st2"
   inkscape:connector-curvature="0"
   style="fill:#2a3990" />

		<path
   id="path3023"
   d="m 175.082,53.216 h -2.345 L 169.921,48.5 c -0.261,-0.438 -0.508,-0.812 -0.753,-1.122 -0.241,-0.306 -0.491,-0.559 -0.745,-0.755 -0.251,-0.197 -0.526,-0.338 -0.817,-0.43 -0.294,-0.09 -0.625,-0.135 -0.991,-0.135 h -1.621 v 7.158 h -1.973 V 36.39 h 5.025 c 0.732,0 1.409,0.093 2.032,0.275 0.623,0.185 1.163,0.463 1.621,0.839 0.454,0.376 0.816,0.842 1.075,1.403 0.255,0.559 0.386,1.214 0.386,1.964 0,0.588 -0.085,1.124 -0.265,1.613 -0.174,0.491 -0.424,0.925 -0.747,1.309 -0.326,0.383 -0.719,0.71 -1.177,0.98 -0.457,0.269 -0.971,0.48 -1.541,0.629 v 0.047 c 0.282,0.123 0.523,0.267 0.73,0.429 0.21,0.16 0.409,0.348 0.594,0.568 0.189,0.219 0.375,0.467 0.558,0.745 0.186,0.278 0.39,0.601 0.617,0.967 l 3.153,5.058 z M 164.995,38.173 v 6.101 h 2.676 c 0.492,0 0.947,-0.073 1.366,-0.223 0.418,-0.148 0.782,-0.361 1.084,-0.638 0.308,-0.28 0.544,-0.619 0.717,-1.021 0.174,-0.404 0.258,-0.855 0.258,-1.357 0,-0.899 -0.291,-1.599 -0.873,-2.106 -0.584,-0.504 -1.424,-0.757 -2.528,-0.757 h -2.7 z"
   class="st2"
   inkscape:connector-curvature="0"
   style="fill:#2a3990" />

		<path
   id="path3025"
   d="m 179.366,36.39 v 16.825 h -1.968 V 36.39 h 1.968 z"
   class="st2"
   inkscape:connector-curvature="0"
   style="fill:#2a3990" />

		<path
   id="path3027"
   d="m 183.005,52.535 v -2.323 c 0.265,0.236 0.584,0.444 0.954,0.633 0.37,0.188 0.761,0.348 1.177,0.475 0.407,0.131 0.822,0.231 1.235,0.3 0.415,0.072 0.797,0.104 1.151,0.104 1.21,0 2.117,-0.223 2.715,-0.675 0.601,-0.45 0.896,-1.097 0.896,-1.941 0,-0.453 -0.098,-0.85 -0.296,-1.185 -0.203,-0.337 -0.477,-0.645 -0.829,-0.922 -0.352,-0.278 -0.767,-0.544 -1.252,-0.798 -0.479,-0.254 -0.996,-0.522 -1.55,-0.803 -0.588,-0.298 -1.137,-0.599 -1.646,-0.905 -0.506,-0.305 -0.951,-0.641 -1.323,-1.008 -0.377,-0.37 -0.674,-0.784 -0.886,-1.25 -0.218,-0.466 -0.325,-1.011 -0.325,-1.637 0,-0.765 0.169,-1.432 0.506,-2.001 0.335,-0.566 0.777,-1.034 1.326,-1.401 0.546,-0.369 1.171,-0.643 1.868,-0.823 0.703,-0.179 1.416,-0.269 2.145,-0.269 1.659,0 2.866,0.2 3.625,0.598 v 2.219 c -0.994,-0.688 -2.268,-1.033 -3.827,-1.033 -0.43,0 -0.86,0.044 -1.29,0.134 -0.43,0.091 -0.814,0.238 -1.149,0.44 -0.337,0.204 -0.611,0.466 -0.823,0.787 -0.21,0.319 -0.314,0.711 -0.314,1.173 0,0.429 0.079,0.801 0.239,1.114 0.16,0.313 0.398,0.598 0.709,0.856 0.314,0.258 0.695,0.509 1.143,0.75 0.451,0.243 0.97,0.51 1.555,0.8 0.604,0.296 1.177,0.609 1.714,0.938 0.54,0.329 1.014,0.692 1.419,1.091 0.407,0.398 0.73,0.841 0.965,1.326 0.244,0.486 0.361,1.042 0.361,1.668 0,0.828 -0.163,1.531 -0.486,2.105 -0.326,0.575 -0.761,1.043 -1.314,1.4 -0.553,0.362 -1.189,0.621 -1.909,0.782 -0.72,0.161 -1.476,0.241 -2.275,0.241 -0.265,0 -0.595,-0.022 -0.985,-0.066 -0.39,-0.042 -0.79,-0.105 -1.197,-0.187 -0.406,-0.081 -0.791,-0.183 -1.157,-0.304 -0.364,-0.119 -0.652,-0.253 -0.87,-0.403 z"
   class="st2"
   inkscape:connector-curvature="0"
   style="fill:#2a3990" />

		<path
   id="path3029"
   d="m 211.867,53.216 h -8.731 V 36.39 h 1.971 v 15.043 h 6.76 v 1.783 z"
   class="st2"
   inkscape:connector-curvature="0"
   style="fill:#2a3990" />

		<path
   id="path3031"
   d="m 228.164,53.216 h -2.183 L 224.199,48.5 h -7.135 l -1.678,4.716 h -2.194 l 6.453,-16.825 h 2.041 l 6.478,16.825 z m -4.613,-6.489 -2.637,-7.167 c -0.087,-0.236 -0.171,-0.611 -0.259,-1.128 h -0.047 c -0.078,0.479 -0.166,0.854 -0.27,1.128 l -2.616,7.167 h 5.829 z"
   class="st2"
   inkscape:connector-curvature="0"
   style="fill:#2a3990" />

		<path
   id="path3033"
   d="M 230.64,53.216 V 36.39 h 4.787 c 1.454,0 2.608,0.356 3.461,1.069 0.855,0.71 1.281,1.636 1.281,2.781 0,0.954 -0.259,1.783 -0.774,2.486 -0.515,0.703 -1.23,1.205 -2.137,1.502 v 0.046 c 1.134,0.135 2.041,0.562 2.723,1.286 0.68,0.724 1.021,1.664 1.021,2.82 0,1.441 -0.517,2.607 -1.549,3.497 -1.034,0.892 -2.332,1.338 -3.907,1.338 h -4.906 z m 1.972,-15.043 v 5.433 h 2.018 c 1.076,0 1.927,-0.259 2.544,-0.779 0.617,-0.521 0.928,-1.254 0.928,-2.201 0,-1.634 -1.079,-2.453 -3.226,-2.453 h -2.264 z m 0,7.204 v 6.056 h 2.676 c 1.156,0 2.055,-0.276 2.691,-0.823 0.64,-0.546 0.956,-1.298 0.956,-2.252 0,-1.986 -1.355,-2.981 -4.057,-2.981 h -2.266 z"
   class="st2"
   inkscape:connector-curvature="0"
   style="fill:#2a3990" />

	</g>

	<polygon
   id="polygon3035"
   points="4.569,65.094 4.569,65.094 4.569,65.094 " />

	<polygon
   id="polygon3037"
   points="4.569,65.092 4.569,65.094 4.569,65.094 " />

	<polygon
   id="polygon3039"
   points="4.569,59.266 4.569,59.266 4.569,59.266 " />

	<radialGradient
   gradientUnits="userSpaceOnUse"
   r="16.788099"
   cy="44.2691"
   cx="44.303902"
   id="SVGID_2_">
		<stop
   id="stop3042"
   style="stop-color:#006080"
   offset="0" />

		<stop
   id="stop3044"
   style="stop-color:#5BC3EB"
   offset="0.7192" />

	</radialGradient>

	<path
   id="path3046"
   d="m 64.071,31.436 h -8.383 c 0,4.715 -11.382,8.539 -11.382,8.539 l 0,0 h 0.002 -0.002 l -9.812,4.294 c -5.052,2.719 -10.165,6.503 -10.165,10.686 0,0.73 0.075,1.445 0.207,2.148 h 8.38 c 0,-4.714 11.39,-8.54 11.39,-8.54 l 0,0 9.809,-4.294 c 5.049,-2.717 10.164,-6.5 10.164,-10.684 0,-0.733 -0.074,-1.449 -0.208,-2.149 z"
   class="st3"
   inkscape:connector-curvature="0"
   style="fill:url(#SVGID_2_)" />

	<path
   id="path3048"
   d="m 60.541,48.564 c -1.834,-1.61 -4.136,-3.061 -6.426,-4.294 -4.933,-2.655 -9.809,-4.295 -9.809,-4.295 l 0,0 0,0 c 0,0 -11.39,-3.823 -11.39,-8.539 0,-4.716 5.1,-8.54 11.39,-8.54 6.286,0 11.382,3.825 11.382,8.54 h 8.383 C 62.679,24.182 54.362,18.602 44.306,18.602 c -11.034,0 -19.977,6.71 -19.977,14.982 0,2.287 1.53,4.452 3.741,6.391 1.832,1.611 4.134,3.062 6.424,4.295 4.929,2.651 9.801,4.291 9.812,4.294 v 0.002 c 0.024,0.006 11.382,3.828 11.382,8.537 0,4.715 -5.096,8.54 -11.382,8.54 -6.29,0 -11.39,-3.825 -11.39,-8.54 h -8.38 c 1.392,7.254 9.708,12.836 19.77,12.836 11.03,0 19.973,-6.711 19.973,-14.983 0,-2.286 -1.531,-4.453 -3.738,-6.392 z"
   class="st4"
   inkscape:connector-curvature="0"
   style="fill:#ffffff" />

	<g
   id="g3050">
		<g
   id="g3052">
			<linearGradient
   y2="44.263"
   x2="78.492897"
   y1="44.263"
   x1="6.7163"
   gradientUnits="userSpaceOnUse"
   id="SVGID_3_">
				<stop
   id="stop3055"
   style="stop-color:#0C4879"
   offset="0" />

				<stop
   id="stop3057"
   style="stop-color:#055AA2"
   offset="0.1921" />

				<stop
   id="stop3059"
   style="stop-color:#5BC3EB"
   offset="1" />

			</linearGradient>

			<path
   id="path3061"
   d="m 77.629,59.594 c 0,0 -0.34,0.703 -0.976,2.022 -0.319,0.659 -0.8,1.427 -1.322,2.358 -0.264,0.462 -0.605,0.922 -0.939,1.434 -0.34,0.507 -0.698,1.049 -1.136,1.578 -1.651,2.185 -3.923,4.677 -6.981,6.998 -3.044,2.319 -6.88,4.478 -11.408,5.891 -1.148,0.289 -2.299,0.681 -3.517,0.877 -0.605,0.111 -1.215,0.249 -1.834,0.341 -0.625,0.074 -1.256,0.149 -1.89,0.225 -0.633,0.095 -1.278,0.101 -1.927,0.133 -0.326,0.014 -0.652,0.03 -0.979,0.043 l -0.493,0.022 c -0.212,0 -0.338,-0.013 -0.512,-0.017 C 43.064,81.472 42.409,81.443 41.747,81.415 41.084,81.377 40.421,81.39 39.741,81.262 34.295,80.651 28.734,78.774 23.722,75.534 18.712,72.307 14.419,67.656 11.334,62.215 8.358,56.7 6.695,50.401 6.717,43.972 l 0.123,-2.341 0.063,-1.17 0.181,-1.19 0.369,-2.377 c 0.165,-0.778 0.39,-1.539 0.581,-2.309 0.331,-1.553 0.976,-3.008 1.499,-4.494 0.268,-0.742 0.665,-1.427 0.991,-2.14 0.361,-0.698 0.643,-1.435 1.082,-2.087 3.147,-5.401 7.476,-10.03 12.565,-13.141 5.04,-3.182 10.653,-5 16.068,-5.535 1.366,-0.083 2.683,-0.131 4.035,-0.179 1.307,0.078 2.578,0.062 3.863,0.259 2.569,0.243 4.962,0.86 7.228,1.544 4.507,1.48 8.318,3.676 11.333,6.042 3.021,2.368 5.263,4.887 6.878,7.099 0.433,0.533 0.771,1.089 1.11,1.596 0.329,0.517 0.668,0.977 0.921,1.448 0.505,0.936 0.98,1.707 1.287,2.374 0.618,1.328 0.948,2.038 0.948,2.038 0,0 -0.354,-0.698 -1.015,-2.004 -0.326,-0.653 -0.826,-1.409 -1.363,-2.323 -0.265,-0.458 -0.622,-0.906 -0.96,-1.41 C 74.156,23.177 73.806,22.635 73.361,22.116 71.702,19.96 69.422,17.523 66.383,15.263 63.348,13.009 59.556,10.953 55.131,9.557 52.908,8.924 50.536,8.353 48.063,8.158 46.846,7.984 45.538,8.018 44.24,7.961 42.988,8.03 41.657,8.095 40.346,8.196 35.083,8.801 29.688,10.66 24.818,13.74 c -4.909,3.034 -9.071,7.537 -12.08,12.762 -0.424,0.631 -0.689,1.346 -1.034,2.02 -0.311,0.691 -0.692,1.353 -0.945,2.07 -0.497,1.437 -1.116,2.839 -1.424,4.34 -0.18,0.741 -0.393,1.479 -0.549,2.224 L 8.448,39.405 8.277,40.53 8.22,41.7 8.106,44.04 c -0.047,6.077 1.521,12.237 4.366,17.552 2.954,5.264 7.078,9.788 11.911,12.933 4.828,3.135 10.226,5.064 15.435,5.731 0.642,0.136 1.32,0.133 1.979,0.181 0.66,0.038 1.314,0.076 1.97,0.114 0.149,0.008 0.348,0.024 0.461,0.025 l 0.482,-0.015 c 0.317,-0.01 0.637,-0.02 0.954,-0.027 0.633,-0.024 1.264,-0.019 1.883,-0.104 0.621,-0.065 1.236,-0.129 1.846,-0.191 0.608,-0.08 1.204,-0.207 1.799,-0.308 1.195,-0.17 2.323,-0.538 3.451,-0.803 4.446,-1.333 8.263,-3.349 11.327,-5.558 3.07,-2.214 5.383,-4.623 7.075,-6.751 0.448,-0.515 0.816,-1.044 1.168,-1.54 0.346,-0.497 0.701,-0.944 0.98,-1.395 0.546,-0.904 1.052,-1.654 1.393,-2.304 0.68,-1.294 1.043,-1.986 1.043,-1.986 z"
   class="st5"
   inkscape:connector-curvature="0"
   style="fill:url(#SVGID_3_)" />

			<linearGradient
   y2="44.260101"
   x2="85.197197"
   y1="44.260101"
   x1="0"
   gradientUnits="userSpaceOnUse"
   id="SVGID_4_">
				<stop
   id="stop3064"
   style="stop-color:#0C4879"
   offset="0" />

				<stop
   id="stop3066"
   style="stop-color:#055AA2"
   offset="0.1921" />

				<stop
   id="stop3068"
   style="stop-color:#5BC3EB"
   offset="1" />

			</linearGradient>

			<path
   id="path3070"
   d="m 84.298,62.513 c 0,0 -0.407,0.837 -1.166,2.407 -0.383,0.783 -0.96,1.696 -1.581,2.801 -0.319,0.549 -0.724,1.096 -1.124,1.704 -0.405,0.603 -0.832,1.248 -1.357,1.875 -1.968,2.598 -4.677,5.555 -8.321,8.309 -3.628,2.751 -8.193,5.308 -13.577,6.982 C 51.792,88.19 45.59,88.985 39.168,88.235 35.954,87.871 32.69,87.14 29.478,86.018 26.263,84.904 23.136,83.324 20.169,81.406 14.24,77.557 9.072,72.09 5.477,65.575 3.696,62.314 2.297,58.807 1.365,55.16 0.461,51.503 -0.028,47.743 0.001,43.94 0.031,43.006 0.024,42.091 0.118,41.133 L 0.23,39.71 0.413,38.305 c 0.098,-0.94 0.305,-1.861 0.462,-2.792 0.201,-0.92 0.402,-1.84 0.649,-2.749 0.998,-3.627 2.404,-7.132 4.264,-10.353 0.895,-1.631 1.954,-3.154 3.031,-4.647 1.122,-1.457 2.281,-2.881 3.558,-4.18 2.511,-2.637 5.33,-4.91 8.319,-6.799 C 26.658,2.955 33.363,0.864 39.787,0.214 40.592,0.141 41.394,0.097 42.19,0.037 42.992,0.026 43.788,0.012 44.578,0 c 1.556,0.091 3.073,0.068 4.598,0.301 3.049,0.286 5.894,1.015 8.592,1.823 5.357,1.755 9.894,4.356 13.484,7.161 3.602,2.81 6.272,5.802 8.2,8.431 0.518,0.633 0.924,1.292 1.328,1.895 0.392,0.614 0.797,1.162 1.098,1.72 0.605,1.114 1.175,2.031 1.541,2.824 0.741,1.58 1.134,2.422 1.134,2.422 0,0 -0.418,-0.832 -1.201,-2.388 C 82.963,23.408 82.37,22.508 81.736,21.418 81.422,20.871 80.998,20.337 80.596,19.737 80.181,19.144 79.767,18.498 79.238,17.879 77.267,15.307 74.555,12.397 70.937,9.696 67.327,7.001 62.808,4.541 57.532,2.872 54.881,2.114 52.054,1.429 49.1,1.194 47.644,0.983 46.091,1.023 44.543,0.952 c -0.762,0.024 -1.529,0.047 -2.304,0.071 -0.776,0.068 -1.561,0.12 -2.346,0.201 -6.27,0.719 -12.755,2.851 -18.549,6.58 -2.9,1.849 -5.632,4.072 -8.062,6.646 -1.238,1.266 -2.355,2.657 -3.441,4.076 -1.038,1.455 -2.063,2.938 -2.924,4.525 -1.793,3.133 -3.139,6.542 -4.093,10.061 -0.235,0.88 -0.427,1.775 -0.619,2.668 -0.146,0.901 -0.345,1.795 -0.436,2.707 l -0.171,1.361 -0.101,1.359 c -0.089,0.894 -0.073,1.842 -0.107,2.767 -0.043,3.64 0.415,7.32 1.278,10.858 0.887,3.538 2.232,6.948 3.945,10.121 3.462,6.339 8.462,11.678 14.217,15.447 2.877,1.884 5.918,3.412 9.031,4.55 3.116,1.133 6.29,1.885 9.424,2.281 6.298,0.816 12.341,0.114 17.661,-1.387 5.301,-1.592 9.848,-4.006 13.495,-6.648 3.657,-2.646 6.405,-5.522 8.417,-8.061 0.532,-0.614 0.971,-1.246 1.387,-1.836 0.41,-0.595 0.832,-1.13 1.165,-1.666 0.648,-1.081 1.247,-1.975 1.653,-2.749 0.805,-1.546 1.235,-2.371 1.235,-2.371 z"
   class="st6"
   inkscape:connector-curvature="0"
   style="fill:url(#SVGID_4_)" />

		</g>

		<polygon
   id="polygon3072"
   points="4.605,64.598 4.605,64.598 4.605,64.598 " />

		<polygon
   id="polygon3074"
   points="4.605,64.598 4.605,64.598 4.605,64.598 " />

		<polygon
   id="polygon3076"
   points="4.605,58.77 4.605,58.77 4.605,58.77 " />

	</g>

</g>
  </g>
  <style
     id="style2986"
     type="text/css">
	.st0{fill:url(#SVGID_1_);}
	.st1{opacity:0.1;fill:#FFFFFF;}
	.st2{fill:#2A3990;}
	.st3{fill:url(#SVGID_2_);}
	.st4{fill:#FFFFFF;}
	.st5{fill:url(#SVGID_3_);}
	.st6{fill:url(#SVGID_4_);}
</style>
</svg>
